ffmpeg started on 2025-06-27 at 12:05:20
Report written to "D:\Convert\FFMetrics\reports\ssim_report-6.txt"
Log level: 32
Command line:
ffmpeg -hide_banner -nostdin -i "G:\\\xc0\xed\xe8\xec\xe5\\[\xd2\xee\xef]\\\xcf\xee\xe2\xe5\xeb\xe8\xf2\xe5\xeb\xfc\\\xd2\xc2-2\\Special\\[Ohys-Raws] Overlord II - SP11 (BDRip-720p)_HEVC.mkv" -i "G:\\\xc0\xed\xe8\xec\xe5\\[\xd2\xee\xef]\\\xcf\xee\xe2\xe5\xeb\xe8\xf2\xe5\xeb\xfc\\\xd2\xc2-2\\Special\\[Ohys-Raws] Overlord II - SP11 (BDRip-720p).mkv" -lavfi "[0:v]settb=AVTB,setpts=PTS-STARTPTS,format=pix_fmts=yuv420p10,fps=24000/1001,scale=1280:720:flags=bicubic[main];[1:v]settb=AVTB,setpts=PTS-STARTPTS,format=pix_fmts=yuv420p,fps=24000/1001,scale=1280:720:flags=bicubic[ref];[main][ref]ssim=eof_action=endall:stats_file='D\\:/Convert/FFMetrics/logs/ssim_logfile-6.txt'" -f null -
Input #0, matroska,webm, from 'G:\Аниме\[Топ]\Повелитель\ТВ-2\Special\[Ohys-Raws] Overlord II - SP11 (BDRip-720p)_HEVC.mkv':
  Metadata:
    ENCODER         : Lavf61.7.100
  Duration: 00:01:32.10, start: -0.021000, bitrate: 508 kb/s
  Stream #0:0(jpn): Video: hevc (Main 10), yuv420p10le(tv, bt709, progressive), 1280x720 [SAR 1:1 DAR 16:9], 23.98 fps, 23.98 tbr, 1k tbn (default)
      Metadata:
        ENCODER         : Lavc61.19.100 libx265
        BPS             : 308659
        DURATION        : 00:01:32.091708333
        NUMBER_OF_FRAMES: 2208
        NUMBER_OF_BYTES : 3553090
        _STATISTICS_WRITING_APP: mkvpropedit v66.0.0 ('Josie') 64-bit
        _STATISTICS_WRITING_DATE_UTC: 2025-06-27 08:27:09
        _STATISTICS_TAGS: BPS DURATION NUMBER_OF_FRAMES NUMBER_OF_BYTES
  Stream #0:1(jpn): Audio: aac (LC), 48000 Hz, stereo, fltp (default)
      Metadata:
        ENCODER         : Lavc61.19.100 aac
        BPS             : 195300
        DURATION        : 00:01:32.075000000
        NUMBER_OF_FRAMES: 4317
        NUMBER_OF_BYTES : 2247791
        _STATISTICS_WRITING_APP: mkvpropedit v66.0.0 ('Josie') 64-bit
        _STATISTICS_WRITING_DATE_UTC: 2025-06-27 08:27:09
        _STATISTICS_TAGS: BPS DURATION NUMBER_OF_FRAMES NUMBER_OF_BYTES
Input #1, matroska,webm, from 'G:\Аниме\[Топ]\Повелитель\ТВ-2\Special\[Ohys-Raws] Overlord II - SP11 (BDRip-720p).mkv':
  Metadata:
    encoder         : libebml v1.2.3 + libmatroska v1.3.0
    creation_time   : 2018-08-21T12:09:08.000000Z
  Duration: 00:01:32.09, start: 0.000000, bitrate: 1315 kb/s
  Stream #1:0(jpn): Video: h264 (Main), yuv420p(progressive), 1280x720 [SAR 1:1 DAR 16:9], 23.98 fps, 23.98 tbr, 1k tbn (default)
  Stream #1:1(jpn): Audio: aac (LC), 48000 Hz, stereo, fltp (default)
Stream mapping:
  Stream #0:0 (hevc) -> settb:default
  Stream #1:0 (h264) -> settb:default
  ssim:default -> Stream #0:0 (wrapped_avframe)
  Stream #0:1 -> #0:1 (aac (native) -> pcm_s16le (native))
[swscaler @ 000002740a5fd900] No accelerated colorspace conversion found from yuv420p to bgr48le.
[swscaler @ 000002740a69c840] No accelerated colorspace conversion found from yuv420p to bgr48le.
[swscaler @ 000002740a6f0e80] No accelerated colorspace conversion found from yuv420p to bgr48le.
[swscaler @ 000002740a771a80] No accelerated colorspace conversion found from yuv420p to bgr48le.
[swscaler @ 00000274079665c0] No accelerated colorspace conversion found from yuv420p to bgr48le.
[swscaler @ 000002740a9d1200] No accelerated colorspace conversion found from yuv420p to bgr48le.
[swscaler @ 000002740aa299c0] No accelerated colorspace conversion found from yuv420p to bgr48le.
[swscaler @ 000002740ab56440] No accelerated colorspace conversion found from yuv420p to bgr48le.
[swscaler @ 000002740aca9740] No accelerated colorspace conversion found from yuv420p to bgr48le.
[swscaler @ 000002740ae23ac0] No accelerated colorspace conversion found from yuv420p to bgr48le.
[swscaler @ 000002740af74040] No accelerated colorspace conversion found from yuv420p to bgr48le.
[swscaler @ 000002740b04cb40] No accelerated colorspace conversion found from yuv420p to bgr48le.
[swscaler @ 000002740b11c040] No accelerated colorspace conversion found from yuv420p to bgr48le.
[swscaler @ 000002740b1ad040] No accelerated colorspace conversion found from yuv420p to bgr48le.
[swscaler @ 000002740b20b040] No accelerated colorspace conversion found from yuv420p to bgr48le.
[swscaler @ 000002740b283040] No accelerated colorspace conversion found from yuv420p to bgr48le.
Output #0, null, to 'pipe:':
  Metadata:
    encoder         : Lavf61.7.100
  Stream #0:0: Video: wrapped_avframe, yuv420p10le(tv, bt709, progressive), 1280x720 [SAR 1:1 DAR 16:9], q=2-31, 200 kb/s, 23.98 fps, 23.98 tbn
      Metadata:
        encoder         : Lavc61.19.100 wrapped_avframe
  Stream #0:1(jpn): Audio: pcm_s16le, 48000 Hz, stereo, s16, 1536 kb/s (default)
      Metadata:
        _STATISTICS_TAGS: BPS DURATION NUMBER_OF_FRAMES NUMBER_OF_BYTES
        BPS             : 195300
        DURATION        : 00:01:32.075000000
        NUMBER_OF_FRAMES: 4317
        NUMBER_OF_BYTES : 2247791
        _STATISTICS_WRITING_APP: mkvpropedit v66.0.0 ('Josie') 64-bit
        _STATISTICS_WRITING_DATE_UTC: 2025-06-27 08:27:09
        encoder         : Lavc61.19.100 pcm_s16le
frame=   73 fps=0.0 q=-0.0 size=N/A time=00:00:03.04 bitrate=N/A speed=5.86x    frame=  159 fps=155 q=-0.0 size=N/A time=00:00:06.63 bitrate=N/A speed=6.45x    frame=  246 fps=158 q=-0.0 size=N/A time=00:00:10.26 bitrate=N/A speed= 6.6x    frame=  331 fps=160 q=-0.0 size=N/A time=00:00:13.80 bitrate=N/A speed=6.68x    frame=  416 fps=162 q=-0.0 size=N/A time=00:00:17.35 bitrate=N/A speed=6.74x    frame=  499 fps=161 q=-0.0 size=N/A time=00:00:20.81 bitrate=N/A speed=6.71x    frame=  586 fps=162 q=-0.0 size=N/A time=00:00:24.44 bitrate=N/A speed=6.78x    frame=  672 fps=163 q=-0.0 size=N/A time=00:00:28.02 bitrate=N/A speed=6.79x    frame=  759 fps=163 q=-0.0 size=N/A time=00:00:31.65 bitrate=N/A speed= 6.8x    frame=  841 fps=162 q=-0.0 size=N/A time=00:00:35.07 bitrate=N/A speed=6.77x    frame=  926 fps=162 q=-0.0 size=N/A time=00:00:38.62 bitrate=N/A speed=6.78x    frame= 1019 fps=164 q=-0.0 size=N/A time=00:00:42.50 bitrate=N/A speed=6.85x    frame= 1103 fps=164 q=-0.0 size=N/A time=00:00:46.00 bitrate=N/A speed=6.85x    frame= 1190 fps=164 q=-0.0 size=N/A time=00:00:49.63 bitrate=N/A speed=6.85x    frame= 1264 fps=163 q=-0.0 size=N/A time=00:00:52.71 bitrate=N/A speed= 6.8x    frame= 1358 fps=164 q=-0.0 size=N/A time=00:00:56.63 bitrate=N/A speed=6.85x    frame= 1452 fps=165 q=-0.0 size=N/A time=00:01:00.56 bitrate=N/A speed=6.89x    frame= 1537 fps=165 q=-0.0 size=N/A time=00:01:04.10 bitrate=N/A speed=6.89x    frame= 1622 fps=165 q=-0.0 size=N/A time=00:01:07.65 bitrate=N/A speed=6.89x    frame= 1711 fps=165 q=-0.0 size=N/A time=00:01:11.36 bitrate=N/A speed= 6.9x    frame= 1797 fps=166 q=-0.0 size=N/A time=00:01:14.94 bitrate=N/A speed=6.91x    frame= 1880 fps=165 q=-0.0 size=N/A time=00:01:18.41 bitrate=N/A speed= 6.9x    frame= 1969 fps=166 q=-0.0 size=N/A time=00:01:22.12 bitrate=N/A speed=6.91x    frame= 2050 fps=165 q=-0.0 size=N/A time=00:01:25.50 bitrate=N/A speed= 6.9x    frame= 2142 fps=166 q=-0.0 size=N/A time=00:01:29.33 bitrate=N/A speed=6.92x    [Parsed_ssim_10 @ 0000027409e089c0] SSIM Y:0.991224 (20.567085) U:0.991107 (20.509707) V:0.989866 (19.942279) All:0.990978 (20.447133)
[out#0/null @ 000002747e1027c0] video:949KiB audio:17268KiB subtitle:0KiB other streams:0KiB global headers:0KiB muxing overhead: unknown
frame= 2208 fps=166 q=-0.0 Lsize=N/A time=00:01:32.09 bitrate=N/A speed=6.92x    
